<mxfile host="Electron" agent="Mozilla/5.0 (Windows NT 10.0; Win64; x64) AppleWebKit/537.36 (KHTML, like Gecko) draw.io/28.0.6 Chrome/138.0.7204.100 Electron/37.2.3 Safari/537.36" version="28.0.6">
  <diagram name="Page-1" id="9QT5jEyWIRjXVvZIH6pH">
    <mxGraphModel dx="1042" dy="626" grid="1" gridSize="10" guides="1" tooltips="1" connect="1" arrows="1" fold="1" page="1" pageScale="1" pageWidth="850" pageHeight="1100" math="0" shadow="0">
      <root>
        <mxCell id="0" />
        <mxCell id="1" parent="0" />
        <mxCell id="QoIOiyyWEtVSAl5BcgHo-1" value="" style="image;aspect=fixed;html=1;points=[];align=center;fontSize=12;image=img/lib/azure2/databases/SQL_Server.svg;" vertex="1" parent="1">
          <mxGeometry x="30" y="167" width="68" height="68" as="geometry" />
        </mxCell>
        <mxCell id="QoIOiyyWEtVSAl5BcgHo-2" value="&lt;b&gt;&lt;font style=&quot;font-size: 12px;&quot;&gt;On-Premise SQL Database&lt;/font&gt;&lt;/b&gt;" style="text;html=1;align=center;verticalAlign=middle;whiteSpace=wrap;rounded=0;" vertex="1" parent="1">
          <mxGeometry x="29" y="250" width="70" height="30" as="geometry" />
        </mxCell>
        <mxCell id="QoIOiyyWEtVSAl5BcgHo-3" value="&lt;b&gt;&lt;font style=&quot;font-size: 18px;&quot;&gt;Project Work Flow&lt;/font&gt;&lt;/b&gt;" style="text;html=1;align=center;verticalAlign=middle;whiteSpace=wrap;rounded=0;" vertex="1" parent="1">
          <mxGeometry x="343" y="10" width="180" height="30" as="geometry" />
        </mxCell>
        <mxCell id="QoIOiyyWEtVSAl5BcgHo-4" value="" style="rounded=1;whiteSpace=wrap;html=1;fillColor=none;" vertex="1" parent="1">
          <mxGeometry x="245" y="115" width="435" height="180" as="geometry" />
        </mxCell>
        <mxCell id="QoIOiyyWEtVSAl5BcgHo-5" value="&lt;b&gt;Azure Data Lake Storage&lt;/b&gt;" style="text;html=1;align=center;verticalAlign=middle;whiteSpace=wrap;rounded=0;" vertex="1" parent="1">
          <mxGeometry x="387" y="130" width="144" height="30" as="geometry" />
        </mxCell>
        <mxCell id="QoIOiyyWEtVSAl5BcgHo-6" value="" style="image;aspect=fixed;html=1;points=[];align=center;fontSize=12;image=img/lib/azure2/storage/Data_Lake_Storage_Gen1.svg;" vertex="1" parent="1">
          <mxGeometry x="425" y="78" width="64" height="52" as="geometry" />
        </mxCell>
        <mxCell id="QoIOiyyWEtVSAl5BcgHo-7" value="" style="shape=cylinder3;whiteSpace=wrap;html=1;boundedLbl=1;backgroundOutline=1;size=15;fillColor=#ffcccc;strokeColor=#36393d;" vertex="1" parent="1">
          <mxGeometry x="288" y="167" width="42" height="60" as="geometry" />
        </mxCell>
        <mxCell id="QoIOiyyWEtVSAl5BcgHo-8" value="&lt;b&gt;&lt;font style=&quot;font-size: 14px;&quot;&gt;Medallion Architecture&lt;/font&gt;&lt;/b&gt;" style="text;html=1;align=center;verticalAlign=middle;whiteSpace=wrap;rounded=0;" vertex="1" parent="1">
          <mxGeometry x="250" y="89" width="156" height="30" as="geometry" />
        </mxCell>
        <mxCell id="QoIOiyyWEtVSAl5BcgHo-9" value="&lt;b&gt;Bronze&lt;/b&gt;" style="text;html=1;align=center;verticalAlign=middle;whiteSpace=wrap;rounded=0;" vertex="1" parent="1">
          <mxGeometry x="279" y="194" width="60" height="30" as="geometry" />
        </mxCell>
        <mxCell id="QoIOiyyWEtVSAl5BcgHo-10" value="" style="shape=cylinder3;whiteSpace=wrap;html=1;boundedLbl=1;backgroundOutline=1;size=15;fillColor=#f5f5f5;strokeColor=#666666;gradientColor=#b3b3b3;" vertex="1" parent="1">
          <mxGeometry x="429" y="167" width="42" height="60" as="geometry" />
        </mxCell>
        <mxCell id="QoIOiyyWEtVSAl5BcgHo-11" value="&lt;b&gt;Silver&lt;/b&gt;" style="text;html=1;align=center;verticalAlign=middle;whiteSpace=wrap;rounded=0;" vertex="1" parent="1">
          <mxGeometry x="420" y="197" width="60" height="30" as="geometry" />
        </mxCell>
        <mxCell id="QoIOiyyWEtVSAl5BcgHo-12" value="Raw Data" style="text;html=1;align=center;verticalAlign=middle;whiteSpace=wrap;rounded=0;" vertex="1" parent="1">
          <mxGeometry x="279" y="227" width="60" height="30" as="geometry" />
        </mxCell>
        <mxCell id="QoIOiyyWEtVSAl5BcgHo-13" value="Data Cleaning &amp;amp; Transformation" style="text;html=1;align=center;verticalAlign=middle;whiteSpace=wrap;rounded=0;" vertex="1" parent="1">
          <mxGeometry x="392" y="230" width="120" height="30" as="geometry" />
        </mxCell>
        <mxCell id="QoIOiyyWEtVSAl5BcgHo-14" value="" style="shape=cylinder3;whiteSpace=wrap;html=1;boundedLbl=1;backgroundOutline=1;size=15;fillColor=#ffcc99;strokeColor=#36393d;" vertex="1" parent="1">
          <mxGeometry x="572" y="167" width="42" height="60" as="geometry" />
        </mxCell>
        <mxCell id="QoIOiyyWEtVSAl5BcgHo-15" value="Views &amp;amp; External Tables" style="text;html=1;align=center;verticalAlign=middle;whiteSpace=wrap;rounded=0;" vertex="1" parent="1">
          <mxGeometry x="529" y="230" width="120" height="30" as="geometry" />
        </mxCell>
        <mxCell id="QoIOiyyWEtVSAl5BcgHo-16" value="" style="image;aspect=fixed;html=1;points=[];align=center;fontSize=12;image=img/lib/azure2/databases/Data_Factory.svg;" vertex="1" parent="1">
          <mxGeometry x="130" y="167" width="68" height="68" as="geometry" />
        </mxCell>
        <mxCell id="QoIOiyyWEtVSAl5BcgHo-17" value="&lt;b&gt;Azure Data Factory&lt;/b&gt;" style="text;html=1;align=center;verticalAlign=middle;whiteSpace=wrap;rounded=0;" vertex="1" parent="1">
          <mxGeometry x="114" y="240" width="100" height="30" as="geometry" />
        </mxCell>
        <mxCell id="QoIOiyyWEtVSAl5BcgHo-18" value="" style="endArrow=classic;html=1;rounded=0;exitX=0.735;exitY=0.338;exitDx=0;exitDy=0;exitPerimeter=0;" edge="1" parent="1">
          <mxGeometry width="50" height="50" relative="1" as="geometry">
            <mxPoint x="79.98000000000002" y="197.98400000000004" as="sourcePoint" />
            <mxPoint x="130" y="198" as="targetPoint" />
          </mxGeometry>
        </mxCell>
        <mxCell id="QoIOiyyWEtVSAl5BcgHo-19" value="" style="endArrow=classic;html=1;rounded=0;exitX=0.735;exitY=0.338;exitDx=0;exitDy=0;exitPerimeter=0;" edge="1" parent="1">
          <mxGeometry width="50" height="50" relative="1" as="geometry">
            <mxPoint x="197.98" y="200.5" as="sourcePoint" />
            <mxPoint x="288" y="201" as="targetPoint" />
          </mxGeometry>
        </mxCell>
        <mxCell id="QoIOiyyWEtVSAl5BcgHo-21" value="" style="image;sketch=0;aspect=fixed;html=1;points=[];align=center;fontSize=12;image=img/lib/mscae/Databricks.svg;" vertex="1" parent="1">
          <mxGeometry x="346" y="337" width="50" height="48" as="geometry" />
        </mxCell>
        <mxCell id="QoIOiyyWEtVSAl5BcgHo-22" value="" style="endArrow=classic;html=1;rounded=0;" edge="1" parent="1">
          <mxGeometry width="50" height="50" relative="1" as="geometry">
            <mxPoint x="330" y="200" as="sourcePoint" />
            <mxPoint x="360" y="340" as="targetPoint" />
            <Array as="points">
              <mxPoint x="360" y="200" />
              <mxPoint x="360" y="270" />
            </Array>
          </mxGeometry>
        </mxCell>
        <mxCell id="QoIOiyyWEtVSAl5BcgHo-24" value="&lt;b&gt;Azure DataBricks&lt;/b&gt;" style="text;html=1;align=center;verticalAlign=middle;whiteSpace=wrap;rounded=0;" vertex="1" parent="1">
          <mxGeometry x="314" y="385" width="111" height="30" as="geometry" />
        </mxCell>
        <mxCell id="QoIOiyyWEtVSAl5BcgHo-25" value="" style="endArrow=classic;html=1;rounded=0;" edge="1" parent="1">
          <mxGeometry width="50" height="50" relative="1" as="geometry">
            <mxPoint x="380" y="340" as="sourcePoint" />
            <mxPoint x="427" y="200" as="targetPoint" />
            <Array as="points">
              <mxPoint x="380" y="200" />
            </Array>
          </mxGeometry>
        </mxCell>
        <mxCell id="QoIOiyyWEtVSAl5BcgHo-26" value="" style="endArrow=classic;html=1;rounded=0;" edge="1" parent="1">
          <mxGeometry width="50" height="50" relative="1" as="geometry">
            <mxPoint x="473" y="199" as="sourcePoint" />
            <mxPoint x="503" y="340" as="targetPoint" />
            <Array as="points">
              <mxPoint x="503" y="199" />
              <mxPoint x="503" y="269" />
            </Array>
          </mxGeometry>
        </mxCell>
        <mxCell id="QoIOiyyWEtVSAl5BcgHo-27" value="" style="image;aspect=fixed;html=1;points=[];align=center;fontSize=12;image=img/lib/azure2/databases/Azure_Synapse_Analytics.svg;" vertex="1" parent="1">
          <mxGeometry x="490" y="330" width="52.18" height="60" as="geometry" />
        </mxCell>
        <mxCell id="QoIOiyyWEtVSAl5BcgHo-28" value="&lt;b&gt;Azure synapse analytics&lt;/b&gt;" style="text;html=1;align=center;verticalAlign=middle;whiteSpace=wrap;rounded=0;" vertex="1" parent="1">
          <mxGeometry x="448" y="385" width="150" height="30" as="geometry" />
        </mxCell>
        <mxCell id="QoIOiyyWEtVSAl5BcgHo-29" value="" style="endArrow=classic;html=1;rounded=0;" edge="1" parent="1">
          <mxGeometry width="50" height="50" relative="1" as="geometry">
            <mxPoint x="530" y="330" as="sourcePoint" />
            <mxPoint x="570" y="200" as="targetPoint" />
            <Array as="points">
              <mxPoint x="531" y="200" />
            </Array>
          </mxGeometry>
        </mxCell>
        <mxCell id="QoIOiyyWEtVSAl5BcgHo-31" value="&lt;b&gt;Gold&lt;/b&gt;" style="text;html=1;align=center;verticalAlign=middle;whiteSpace=wrap;rounded=0;" vertex="1" parent="1">
          <mxGeometry x="563" y="194" width="60" height="30" as="geometry" />
        </mxCell>
        <mxCell id="QoIOiyyWEtVSAl5BcgHo-32" value="" style="image;aspect=fixed;html=1;points=[];align=center;fontSize=12;image=img/lib/azure2/power_platform/PowerBI.svg;" vertex="1" parent="1">
          <mxGeometry x="623" y="317" width="47.25" height="63" as="geometry" />
        </mxCell>
        <mxCell id="QoIOiyyWEtVSAl5BcgHo-33" value="&lt;b&gt;Power BI&lt;/b&gt;" style="text;html=1;align=center;verticalAlign=middle;whiteSpace=wrap;rounded=0;" vertex="1" parent="1">
          <mxGeometry x="614" y="385" width="60" height="30" as="geometry" />
        </mxCell>
        <mxCell id="QoIOiyyWEtVSAl5BcgHo-34" value="" style="endArrow=classic;html=1;rounded=0;" edge="1" parent="1">
          <mxGeometry width="50" height="50" relative="1" as="geometry">
            <mxPoint x="614" y="199" as="sourcePoint" />
            <mxPoint x="644" y="330" as="targetPoint" />
            <Array as="points">
              <mxPoint x="644" y="199" />
              <mxPoint x="644" y="269" />
            </Array>
          </mxGeometry>
        </mxCell>
        <mxCell id="QoIOiyyWEtVSAl5BcgHo-35" value="" style="image;aspect=fixed;html=1;points=[];align=center;fontSize=12;image=img/lib/azure2/security/Key_Vaults.svg;" vertex="1" parent="1">
          <mxGeometry x="440" y="430" width="68" height="68" as="geometry" />
        </mxCell>
        <mxCell id="QoIOiyyWEtVSAl5BcgHo-36" value="&lt;b&gt;Azure Key Vault&lt;/b&gt;" style="text;html=1;align=center;verticalAlign=middle;whiteSpace=wrap;rounded=0;" vertex="1" parent="1">
          <mxGeometry x="424" y="498" width="100" height="30" as="geometry" />
        </mxCell>
        <mxCell id="QoIOiyyWEtVSAl5BcgHo-37" value="" style="endArrow=classic;html=1;rounded=0;exitX=-0.053;exitY=0.506;exitDx=0;exitDy=0;exitPerimeter=0;" edge="1" parent="1" source="QoIOiyyWEtVSAl5BcgHo-35">
          <mxGeometry width="50" height="50" relative="1" as="geometry">
            <mxPoint x="120" y="370" as="sourcePoint" />
            <mxPoint x="170" y="280" as="targetPoint" />
            <Array as="points">
              <mxPoint x="170" y="464" />
            </Array>
          </mxGeometry>
        </mxCell>
        <mxCell id="QoIOiyyWEtVSAl5BcgHo-38" value="" style="endArrow=classic;html=1;rounded=0;" edge="1" parent="1">
          <mxGeometry width="50" height="50" relative="1" as="geometry">
            <mxPoint x="509" y="464" as="sourcePoint" />
            <mxPoint x="640" y="410" as="targetPoint" />
            <Array as="points">
              <mxPoint x="640" y="464" />
              <mxPoint x="640" y="430" />
            </Array>
          </mxGeometry>
        </mxCell>
      </root>
    </mxGraphModel>
  </diagram>
</mxfile>
